<mxfile host="app.diagrams.net" modified="2023-04-20T02:42:25.842Z" agent="Mozilla/5.0 (Macintosh; Intel Mac OS X 10_15_7) AppleWebKit/537.36 (KHTML, like Gecko) Chrome/112.0.0.0 Safari/537.36" version="21.2.1" etag="kyAd06Y4qyD7izKyAx48" type="github">
  <diagram name="第 1 页" id="j-0hAsTp2Vlp88QU5n6k">
    <mxGraphModel>
      <root>
        <mxCell id="0" />
        <mxCell id="1" parent="0" />
      </root>
    </mxGraphModel>
  </diagram>
</mxfile>
